<svg width="642" height="93" viewBox="0 0 642 93" fill="none" xmlns="http://www.w3.org/2000/svg">
<path d="M0.00021553 91.648V2.048H20.2242L77.1842 66.048L73.7282 65.408C73.2162 62.336 72.8322 59.4347 72.5762 56.704C72.3202 53.888 72.0642 51.1573 71.8082 48.512C71.6376 45.8667 71.4669 43.264 71.2962 40.704C71.2109 38.144 71.1682 35.4987 71.1682 32.768C71.1682 30.0373 71.1682 27.1787 71.1682 24.192V2.048H92.2882V91.648H71.8082L12.8002 25.6L18.5602 26.496C18.9015 28.9707 19.2002 31.3173 19.4562 33.536C19.7122 35.6693 19.9256 37.8027 20.0962 39.936C20.3522 42.0693 20.5656 44.2453 20.7362 46.464C20.9069 48.5973 20.9922 50.944 20.9922 53.504C21.0776 55.9787 21.1202 58.7093 21.1202 61.696V91.648H0.00021553ZM173.083 92.928C165.403 92.928 158.363 91.776 151.963 89.472C145.649 87.0827 140.145 83.7973 135.451 79.616C130.843 75.4347 127.259 70.528 124.699 64.896C122.139 59.1787 120.859 53.0347 120.859 46.464C120.859 39.808 122.139 33.664 124.699 28.032C127.259 22.4 130.886 17.4933 135.579 13.312C140.273 9.13067 145.777 5.888 152.091 3.584C158.406 1.19467 165.361 0 172.955 0C180.635 0 187.633 1.152 193.947 3.456C200.347 5.76 205.851 9.04533 210.459 13.312C215.153 17.4933 218.737 22.4 221.211 28.032C223.771 33.664 225.051 39.808 225.051 46.464C225.051 53.12 223.771 59.264 221.211 64.896C218.737 70.528 215.153 75.4773 210.459 79.744C205.851 83.9253 200.347 87.168 193.947 89.472C187.633 91.776 180.678 92.928 173.083 92.928ZM173.083 72.448C177.435 72.448 181.446 71.808 185.115 70.528C188.785 69.1627 191.942 67.328 194.587 65.024C197.233 62.6347 199.281 59.8613 200.731 56.704C202.182 53.5467 202.907 50.1333 202.907 46.464C202.907 42.7947 202.182 39.3813 200.731 36.224C199.281 33.0667 197.233 30.336 194.587 28.032C191.942 25.6427 188.742 23.808 184.987 22.528C181.318 21.1627 177.35 20.48 173.083 20.48C168.731 20.48 164.721 21.1627 161.051 22.528C157.382 23.808 154.182 25.6 151.451 27.904C148.721 30.208 146.63 32.9813 145.179 36.224C143.814 39.3813 143.131 42.7947 143.131 46.464C143.131 50.1333 143.814 53.5893 145.179 56.832C146.63 59.9893 148.721 62.72 151.451 65.024C154.182 67.328 157.382 69.1627 161.051 70.528C164.721 71.808 168.731 72.448 173.083 72.448ZM299.19 92.928C291.852 92.928 285.068 91.8187 278.838 89.6C272.609 87.3813 267.148 84.224 262.454 80.128C257.761 75.9467 254.134 71.04 251.574 65.408C249.014 59.6907 247.734 53.376 247.734 46.464C247.734 39.7227 249.057 33.536 251.702 27.904C254.433 22.272 258.102 17.3653 262.71 13.184C267.404 9.00266 272.865 5.80266 279.094 3.584C285.409 1.36533 292.193 0.255997 299.446 0.255997C304.481 0.255997 309.388 0.85333 314.166 2.048C318.945 3.24266 323.34 4.90666 327.35 7.04C331.446 9.17333 334.902 11.6053 337.718 14.336L324.918 30.72C322.785 28.7573 320.396 27.008 317.75 25.472C315.19 23.8507 312.332 22.6133 309.174 21.76C306.017 20.8213 302.476 20.352 298.55 20.352C294.881 20.352 291.34 20.9493 287.926 22.144C284.598 23.3387 281.569 25.0453 278.838 27.264C276.193 29.4827 274.06 32.256 272.438 35.584C270.902 38.8267 270.134 42.5387 270.134 46.72C270.134 50.816 270.945 54.528 272.566 57.856C274.188 61.0987 276.406 63.872 279.222 66.176C282.124 68.3947 285.409 70.1013 289.078 71.296C292.833 72.4053 296.801 72.96 300.982 72.96C304.993 72.96 308.577 72.448 311.734 71.424C314.892 70.3147 317.75 68.9493 320.31 67.328C322.87 65.6213 325.132 64 327.094 62.464L337.462 79.232C335.073 81.4507 331.873 83.6267 327.862 85.76C323.937 87.808 319.5 89.5147 314.55 90.88C309.686 92.2453 304.566 92.928 299.19 92.928ZM387.418 91.648V21.248H355.674V2.048H441.434V21.248H409.178V91.648H387.418ZM468.015 91.648V72.832H488.111V20.864H468.015V2.048H530.095V20.864H509.871V72.832H530.095V91.648H468.015ZM601.087 92.928C594.431 92.928 588.33 92.2453 582.783 90.88C577.322 89.5147 572.415 87.6373 568.063 85.248C563.711 82.8587 559.786 80 556.287 76.672L567.679 60.288C573.397 65.664 579.157 69.4187 584.959 71.552C590.847 73.6 596.65 74.624 602.367 74.624C605.013 74.624 607.573 74.3253 610.047 73.728C612.607 73.1307 614.698 72.192 616.319 70.912C618.026 69.632 618.879 67.9253 618.879 65.792C618.879 64.4267 618.453 63.2747 617.599 62.336C616.746 61.312 615.594 60.4587 614.143 59.776C612.693 59.008 610.986 58.4107 609.023 57.984C607.146 57.5573 605.098 57.1733 602.879 56.832C600.661 56.4907 598.357 56.1493 595.967 55.808C590.506 55.04 585.599 53.9307 581.247 52.48C576.981 50.944 573.311 49.0667 570.239 46.848C567.253 44.544 564.991 41.856 563.455 38.784C561.919 35.712 561.151 32.1707 561.151 28.16C561.151 23.808 562.175 19.8827 564.223 16.384C566.271 12.8853 569.13 9.94134 572.799 7.552C576.469 5.07733 580.65 3.2 585.343 1.92C590.122 0.639999 595.242 0 600.703 0C606.847 0 612.266 0.597333 616.959 1.792C621.738 2.98667 625.919 4.65067 629.503 6.784C633.087 8.91733 636.074 11.3067 638.463 13.952L626.687 28.16C624.469 26.112 621.909 24.3627 619.007 22.912C616.191 21.4613 613.205 20.352 610.047 19.584C606.89 18.816 603.733 18.432 600.575 18.432C597.247 18.432 594.346 18.7733 591.871 19.456C589.397 20.0533 587.434 20.9493 585.983 22.144C584.533 23.3387 583.807 24.8747 583.807 26.752C583.807 28.288 584.405 29.6107 585.599 30.72C586.879 31.8293 588.501 32.768 590.463 33.536C592.426 34.2187 594.602 34.7733 596.991 35.2C599.466 35.6267 601.898 36.0107 604.287 36.352C609.237 37.0347 613.93 37.9733 618.367 39.168C622.89 40.2773 626.858 41.8133 630.271 43.776C633.77 45.7387 636.458 48.2987 638.335 51.456C640.298 54.528 641.279 58.496 641.279 63.36C641.279 69.5893 639.53 74.9227 636.031 79.36C632.618 83.712 627.882 87.0827 621.823 89.472C615.85 91.776 608.938 92.928 601.087 92.928Z" fill="white"/>
</svg>
