<svg xmlns="http://www.w3.org/2000/svg" height="40px" viewBox="0 -960 960 960" width="40px" fill="#e3e3e3"><path d="M226.67-80q-27 0-46.84-19.83Q160-119.67 160-146.67v-446q0-27 19.83-46.83 19.84-19.83 46.84-19.83H346q14.17 0 23.75 9.61 9.58 9.62 9.58 23.84 0 14.21-9.58 23.71t-23.75 9.5H226.67v446h506.66v-446H612.67q-14.17 0-23.75-9.61-9.59-9.62-9.59-23.84 0-14.21 9.59-23.71 9.58-9.5 23.75-9.5h120.66q27 0 46.84 19.83Q800-619.67 800-592.67v446q0 27-19.83 46.84Q760.33-80 733.33-80H226.67Zm252.55-258q-14.22 0-23.72-9.58-9.5-9.59-9.5-23.75v-420.34L389.33-735q-10 10-23.33 9.83-13.33-.16-23.59-10.16-9.41-10-9.58-23.67-.16-13.67 9.84-23.67l113.33-114q5.33-5.33 11.09-7.5 5.75-2.16 12.33-2.16t12.25 2.16q5.66 2.17 11 7.5l114 114q9.66 9.67 9.66 23.28 0 13.6-9.4 23.5-10.26 9.89-24.07 9.89-13.82 0-23.86-10l-56.33-55.67v420.34q0 14.16-9.62 23.75-9.62 9.58-23.83 9.58Z"/></svg>