<svg width="44" height="44" viewBox="0 0 44 44" fill="none" xmlns="http://www.w3.org/2000/svg">
<mask id="mask0_518_235" style="mask-type:luminance" maskUnits="userSpaceOnUse" x="5" y="5" width="34" height="34">
<path d="M38.1163 19H22.3837V25.375H31.4395C30.5953 29.425 27.0651 31.75 22.3837 31.75C16.8581 31.75 12.407 27.4 12.407 22C12.407 16.6 16.8581 12.25 22.3837 12.25C24.7628 12.25 26.9116 13.075 28.6 14.425L33.5116 9.625C30.5186 7.075 26.6814 5.5 22.3837 5.5C13.0209 5.5 5.5 12.85 5.5 22C5.5 31.15 13.0209 38.5 22.3837 38.5C30.8256 38.5 38.5 32.5 38.5 22C38.5 21.025 38.3465 19.975 38.1163 19Z" fill="white"/>
</mask>
<g mask="url(#mask0_518_235)">
<path d="M3.96509 31.75V12.25L17.0116 22L3.96509 31.75Z" fill="#FBBC05"/>
</g>
<mask id="mask1_518_235" style="mask-type:luminance" maskUnits="userSpaceOnUse" x="5" y="5" width="34" height="34">
<path d="M38.1163 19H22.3837V25.375H31.4395C30.5953 29.425 27.0651 31.75 22.3837 31.75C16.8581 31.75 12.407 27.4 12.407 22C12.407 16.6 16.8581 12.25 22.3837 12.25C24.7628 12.25 26.9116 13.075 28.6 14.425L33.5116 9.625C30.5186 7.075 26.6814 5.5 22.3837 5.5C13.0209 5.5 5.5 12.85 5.5 22C5.5 31.15 13.0209 38.5 22.3837 38.5C30.8256 38.5 38.5 32.5 38.5 22C38.5 21.025 38.3465 19.975 38.1163 19Z" fill="white"/>
</mask>
<g mask="url(#mask1_518_235)">
<path d="M3.96509 12.25L17.0116 22L22.3837 17.425L40.8023 14.5V4H3.96509V12.25Z" fill="#EA4335"/>
</g>
<mask id="mask2_518_235" style="mask-type:luminance" maskUnits="userSpaceOnUse" x="5" y="5" width="34" height="34">
<path d="M38.1163 19H22.3837V25.375H31.4395C30.5953 29.425 27.0651 31.75 22.3837 31.75C16.8581 31.75 12.407 27.4 12.407 22C12.407 16.6 16.8581 12.25 22.3837 12.25C24.7628 12.25 26.9116 13.075 28.6 14.425L33.5116 9.625C30.5186 7.075 26.6814 5.5 22.3837 5.5C13.0209 5.5 5.5 12.85 5.5 22C5.5 31.15 13.0209 38.5 22.3837 38.5C30.8256 38.5 38.5 32.5 38.5 22C38.5 21.025 38.3465 19.975 38.1163 19Z" fill="white"/>
</mask>
<g mask="url(#mask2_518_235)">
<path d="M3.96509 31.75L26.9883 14.5L33.0511 15.25L40.8023 4V40H3.96509V31.75Z" fill="#34A853"/>
</g>
<mask id="mask3_518_235" style="mask-type:luminance" maskUnits="userSpaceOnUse" x="5" y="5" width="34" height="34">
<path d="M38.1163 19H22.3837V25.375H31.4395C30.5953 29.425 27.0651 31.75 22.3837 31.75C16.8581 31.75 12.407 27.4 12.407 22C12.407 16.6 16.8581 12.25 22.3837 12.25C24.7628 12.25 26.9116 13.075 28.6 14.425L33.5116 9.625C30.5186 7.075 26.6814 5.5 22.3837 5.5C13.0209 5.5 5.5 12.85 5.5 22C5.5 31.15 13.0209 38.5 22.3837 38.5C30.8256 38.5 38.5 32.5 38.5 22C38.5 21.025 38.3465 19.975 38.1163 19Z" fill="white"/>
</mask>
<g mask="url(#mask3_518_235)">
<path d="M40.8024 40L17.0117 22L13.9419 19.75L40.8024 12.25V40Z" fill="#4285F4"/>
</g>
</svg>
