<svg width="40" height="40" viewBox="0 0 40 40" fill="none" xmlns="http://www.w3.org/2000/svg">
<path d="M20 34.0696C19.6667 34.0696 19.331 34.0093 18.993 33.8888C18.6552 33.7685 18.3613 33.5833 18.1113 33.3333L15.6805 31.0971C12.4027 28.0693 9.52546 25.1457 7.04879 22.3263C4.57185 19.5068 3.33337 16.5092 3.33337 13.3333C3.33337 10.7964 4.18518 8.67598 5.88879 6.97209C7.59268 5.26848 9.70379 4.41667 12.2221 4.41667C13.6574 4.41667 15.0556 4.74764 16.4167 5.40959C17.7778 6.07181 18.9723 7.10195 20 8.50001C21.1203 7.10195 22.3332 6.07181 23.6388 5.40959C24.9443 4.74764 26.3241 4.41667 27.778 4.41667C30.2963 4.41667 32.4074 5.26848 34.1113 6.97209C35.8149 8.67598 36.6667 10.7964 36.6667 13.3333C36.6667 16.5092 35.4306 19.5092 32.9584 22.3333C30.4862 25.1575 27.6019 28.0835 24.3055 31.1113L21.8888 33.3333C21.6388 33.5833 21.3449 33.7685 21.0071 33.8888C20.6691 34.0093 20.3334 34.0696 20 34.0696Z" fill="#C72626"/>
</svg>
