<svg width="39" height="39" viewBox="0 0 39 39" fill="none" xmlns="http://www.w3.org/2000/svg">
<path d="M14.0581 33.4122C12.3668 32.687 10.895 31.7074 9.64261 30.4733C8.39026 29.2392 7.39613 27.7888 6.66021 26.1221C5.9243 24.4555 5.55634 22.6679 5.55634 20.7595C5.55634 18.8511 5.9243 17.0636 6.66021 15.3969C7.39613 13.7303 8.39026 12.2799 9.64261 11.0458C10.895 9.8117 12.3668 8.83206 14.0581 8.10687C15.7494 7.38168 17.5634 7.01908 19.5 7.01908C21.4366 7.01908 23.2506 7.38168 24.9419 8.10687C26.6332 8.83206 28.105 9.8117 29.3574 11.0458C30.6097 12.2799 31.6039 13.7303 32.3398 15.3969C33.0757 17.0636 33.4437 18.8511 33.4437 20.7595C33.4437 22.6679 33.0757 24.4555 32.3398 26.1221C31.6039 27.7888 30.6097 29.2392 29.3574 30.4733C28.105 31.7074 26.6332 32.687 24.9419 33.4122C23.2506 34.1374 21.4366 34.5 19.5 34.5C17.5634 34.5 15.7494 34.1374 14.0581 33.4122ZM23.838 27.1718L26.007 25.0344L21.0493 20.1489V13.126H17.9507V21.3702L23.838 27.1718ZM9.58451 4.5L11.7535 6.6374L5.16901 13.126L3 10.9885L9.58451 4.5ZM29.4155 4.5L36 10.9885L33.831 13.126L27.2465 6.6374L29.4155 4.5ZM19.5 31.4466C22.5211 31.4466 25.0839 30.4097 27.1884 28.3359C29.2928 26.2621 30.3451 23.7366 30.3451 20.7595C30.3451 17.7824 29.2928 15.257 27.1884 13.1832C25.0839 11.1094 22.5211 10.0725 19.5 10.0725C16.4789 10.0725 13.9161 11.1094 11.8116 13.1832C9.70716 15.257 8.65493 17.7824 8.65493 20.7595C8.65493 23.7366 9.70716 26.2621 11.8116 28.3359C13.9161 30.4097 16.4789 31.4466 19.5 31.4466Z" fill="#E3E3E3"/>
</svg>
