<svg width="39" height="39" viewBox="0 0 39 39" fill="none" xmlns="http://www.w3.org/2000/svg">
<path d="M7.5 22.8375H9.1875L10.05 20.3625H13.95L14.85 22.8375H16.5L12.8625 13.1625H11.1375L7.5 22.8375ZM10.5375 18.975L11.9625 14.9625H12.0375L13.4625 18.975H10.5375ZM22.5 16.35V13.8C23.325 13.45 24.1688 13.1875 25.0313 13.0125C25.8938 12.8375 26.8 12.75 27.75 12.75C28.4 12.75 29.0375 12.8 29.6625 12.9C30.2875 13 30.9 13.125 31.5 13.275V15.675C30.9 15.45 30.2938 15.2813 29.6813 15.1688C29.0688 15.0563 28.425 15 27.75 15C26.8 15 25.8875 15.1188 25.0125 15.3563C24.1375 15.5938 23.3 15.925 22.5 16.35ZM22.5 24.6V22.05C23.325 21.7 24.1688 21.4375 25.0313 21.2625C25.8938 21.0875 26.8 21 27.75 21C28.4 21 29.0375 21.05 29.6625 21.15C30.2875 21.25 30.9 21.375 31.5 21.525V23.925C30.9 23.7 30.2938 23.5313 29.6813 23.4188C29.0688 23.3063 28.425 23.25 27.75 23.25C26.8 23.25 25.8875 23.3625 25.0125 23.5875C24.1375 23.8125 23.3 24.15 22.5 24.6ZM22.5 20.475V17.925C23.325 17.575 24.1688 17.3125 25.0313 17.1375C25.8938 16.9625 26.8 16.875 27.75 16.875C28.4 16.875 29.0375 16.925 29.6625 17.025C30.2875 17.125 30.9 17.25 31.5 17.4V19.8C30.9 19.575 30.2938 19.4063 29.6813 19.2938C29.0688 19.1813 28.425 19.125 27.75 19.125C26.8 19.125 25.8875 19.2438 25.0125 19.4813C24.1375 19.7188 23.3 20.05 22.5 20.475ZM11.25 25.5C12.425 25.5 13.5688 25.6313 14.6813 25.8938C15.7938 26.1563 16.9 26.55 18 27.075V12.3C16.975 11.7 15.8875 11.25 14.7375 10.95C13.5875 10.65 12.425 10.5 11.25 10.5C10.35 10.5 9.45625 10.5875 8.56875 10.7625C7.68125 10.9375 6.825 11.2 6 11.55V26.4C6.875 26.1 7.74375 25.875 8.60625 25.725C9.46875 25.575 10.35 25.5 11.25 25.5ZM21 27.075C22.1 26.55 23.2063 26.1563 24.3188 25.8938C25.4313 25.6313 26.575 25.5 27.75 25.5C28.65 25.5 29.5313 25.575 30.3938 25.725C31.2563 25.875 32.125 26.1 33 26.4V11.55C32.175 11.2 31.3188 10.9375 30.4313 10.7625C29.5438 10.5875 28.65 10.5 27.75 10.5C26.575 10.5 25.4125 10.65 24.2625 10.95C23.1125 11.25 22.025 11.7 21 12.3V27.075ZM19.5 31.5C18.3 30.55 17 29.8125 15.6 29.2875C14.2 28.7625 12.75 28.5 11.25 28.5C10.2 28.5 9.16875 28.6375 8.15625 28.9125C7.14375 29.1875 6.175 29.575 5.25 30.075C4.725 30.35 4.21875 30.3375 3.73125 30.0375C3.24375 29.7375 3 29.3 3 28.725V10.65C3 10.375 3.06875 10.1125 3.20625 9.8625C3.34375 9.6125 3.55 9.425 3.825 9.3C4.975 8.7 6.175 8.25 7.425 7.95C8.675 7.65 9.95 7.5 11.25 7.5C12.7 7.5 14.1188 7.6875 15.5063 8.0625C16.8938 8.4375 18.225 9 19.5 9.75C20.775 9 22.1063 8.4375 23.4938 8.0625C24.8813 7.6875 26.3 7.5 27.75 7.5C29.05 7.5 30.325 7.65 31.575 7.95C32.825 8.25 34.025 8.7 35.175 9.3C35.45 9.425 35.6563 9.6125 35.7938 9.8625C35.9313 10.1125 36 10.375 36 10.65V28.725C36 29.3 35.7563 29.7375 35.2688 30.0375C34.7813 30.3375 34.275 30.35 33.75 30.075C32.825 29.575 31.8563 29.1875 30.8438 28.9125C29.8313 28.6375 28.8 28.5 27.75 28.5C26.25 28.5 24.8 28.7625 23.4 29.2875C22 29.8125 20.7 30.55 19.5 31.5Z" fill="#E3E3E3"/>
</svg>
