<svg width="40" height="40" viewBox="0 0 40 40" fill="none" xmlns="http://www.w3.org/2000/svg">
<path d="M9.44454 36.6667C8.69454 36.6667 8.04399 36.3913 7.49288 35.8404C6.94204 35.2893 6.66663 34.6388 6.66663 33.8888V15.3054C6.66663 14.5554 6.94204 13.905 7.49288 13.3542C8.04399 12.8033 8.69454 12.5279 9.44454 12.5279H14.4166C14.8102 12.5279 15.1401 12.6614 15.4062 12.9283C15.6723 13.1956 15.8054 13.5267 15.8054 13.9217C15.8054 14.3164 15.6723 14.6457 15.4062 14.9096C15.1401 15.1735 14.8102 15.3054 14.4166 15.3054H9.44454V33.8888H30.5554V15.3054H25.5279C25.1343 15.3054 24.8044 15.1719 24.5383 14.905C24.2719 14.6378 24.1387 14.3067 24.1387 13.9117C24.1387 13.5169 24.2719 13.1876 24.5383 12.9237C24.8044 12.6599 25.1343 12.5279 25.5279 12.5279H30.5554C31.3054 12.5279 31.9559 12.8033 32.507 13.3542C33.0579 13.905 33.3333 14.5554 33.3333 15.3054V33.8888C33.3333 34.6388 33.0579 35.2893 32.507 35.8404C31.9559 36.3913 31.3054 36.6667 30.5554 36.6667H9.44454ZM19.9675 25.9167C19.5725 25.9167 19.243 25.7836 18.9791 25.5175C18.7152 25.2511 18.5833 24.9212 18.5833 24.5279V7.01375L16.222 9.375C15.9443 9.65278 15.6202 9.78931 15.25 9.78458C14.8797 9.78014 14.552 9.63903 14.267 9.36125C14.0057 9.08347 13.8726 8.75472 13.8679 8.375C13.8634 7.99528 14.0001 7.66653 14.2779 7.38875L19 2.63875C19.148 2.49069 19.302 2.38653 19.462 2.32625C19.6218 2.26625 19.793 2.23625 19.9758 2.23625C20.1586 2.23625 20.3287 2.26625 20.4862 2.32625C20.6434 2.38653 20.7962 2.49069 20.9445 2.63875L25.6945 7.38875C25.9629 7.65736 26.097 7.98069 26.097 8.35875C26.097 8.73653 25.9665 9.06291 25.7054 9.33791C25.4204 9.61264 25.0861 9.75 24.7025 9.75C24.3186 9.75 23.9872 9.61111 23.7083 9.33333L21.3612 7.01375V24.5279C21.3612 24.9212 21.2276 25.2511 20.9604 25.5175C20.6932 25.7836 20.3622 25.9167 19.9675 25.9167Z" fill="#E3E3E3"/>
</svg>
