<?xml version="1.0" standalone="no"?>
<!DOCTYPE svg PUBLIC "-//W3C//DTD SVG 20010904//EN"
 "http://www.w3.org/TR/2001/REC-SVG-20010904/DTD/svg10.dtd">
<svg version="1.0" xmlns="http://www.w3.org/2000/svg"
 width="360.000000pt" height="360.000000pt" viewBox="0 0 360.000000 360.000000"
 preserveAspectRatio="xMidYMid meet">
<metadata>
Created by potrace 1.16, written by Peter Selinger 2001-2019
</metadata>
<g transform="translate(0.000000,360.000000) scale(0.100000,-0.100000)"
fill="#000000" stroke="none">
<path d="M1637 3440 c-202 -19 -385 -73 -582 -171 -282 -140 -528 -373 -687
-651 -38 -65 -45 -85 -35 -95 6 -7 67 -54 134 -105 67 -51 185 -141 262 -200
l140 -108 44 94 c58 122 115 205 199 288 333 330 846 377 1230 115 l65 -45
238 238 238 238 -29 26 c-58 52 -231 165 -324 211 -119 60 -325 128 -450 149
-118 20 -326 27 -443 16z"/>
<path d="M1802 1785 l3 -316 436 1 c239 0 438 -2 441 -6 10 -9 -26 -124 -60
-192 -57 -115 -145 -220 -234 -280 l-38 -24 183 -141 c100 -77 218 -169 262
-204 l80 -64 68 73 c203 219 340 498 398 813 28 147 33 451 10 578 l-14 77
-769 0 -768 0 2 -315z"/>
</g>
</svg>
