<svg width="40" height="40" viewBox="0 0 40 40" fill="none" xmlns="http://www.w3.org/2000/svg">
<path d="M10 31.6667H15V23.3333C15 22.8611 15.1597 22.4653 15.4792 22.1458C15.7986 21.8264 16.1945 21.6667 16.6667 21.6667H23.3334C23.8056 21.6667 24.2014 21.8264 24.5209 22.1458C24.8403 22.4653 25 22.8611 25 23.3333V31.6667H30V16.6667L20 9.16667L10 16.6667V31.6667ZM6.66669 31.6667V16.6667C6.66669 16.1389 6.78474 15.6389 7.02085 15.1667C7.25696 14.6944 7.58335 14.3056 8.00002 14L18 6.5C18.5834 6.05555 19.25 5.83333 20 5.83333C20.75 5.83333 21.4167 6.05555 22 6.5L32 14C32.4167 14.3056 32.7431 14.6944 32.9792 15.1667C33.2153 15.6389 33.3334 16.1389 33.3334 16.6667V31.6667C33.3334 32.5833 33.007 33.3681 32.3542 34.0208C31.7014 34.6736 30.9167 35 30 35H23.3334C22.8611 35 22.4653 34.8403 22.1459 34.5208C21.8264 34.2014 21.6667 33.8056 21.6667 33.3333V25H18.3334V33.3333C18.3334 33.8056 18.1736 34.2014 17.8542 34.5208C17.5347 34.8403 17.1389 35 16.6667 35H10C9.08335 35 8.29863 34.6736 7.64585 34.0208C6.99308 33.3681 6.66669 32.5833 6.66669 31.6667Z" fill="#E3E3E3"/>
</svg>
