<svg width="40" height="40" viewBox="0 0 40 40" fill="none" xmlns="http://www.w3.org/2000/svg">
<path d="M11.9583 21.3887L20.9862 30.4167C21.264 30.6944 21.4005 31.0185 21.3958 31.3887C21.3911 31.7593 21.2498 32.0835 20.972 32.3612C20.6943 32.6296 20.3702 32.7661 20 32.7708C19.6297 32.7755 19.3057 32.639 19.0279 32.3612L7.63871 20.9721C7.49065 20.824 7.38648 20.6712 7.32621 20.5137C7.26621 20.3565 7.23621 20.1853 7.23621 20C7.23621 19.8147 7.26621 19.6435 7.32621 19.4862C7.38648 19.3287 7.49065 19.176 7.63871 19.0279L19.0279 7.63874C19.2962 7.3704 19.6179 7.23624 19.9929 7.23624C20.3679 7.23624 20.6943 7.3704 20.972 7.63874C21.2498 7.91652 21.3887 8.2429 21.3887 8.6179C21.3887 8.9929 21.2498 9.31929 20.972 9.59707L11.9583 18.6112H31.9445C32.3426 18.6112 32.6736 18.7432 32.9375 19.0071C33.2013 19.271 33.3333 19.6019 33.3333 20C33.3333 20.398 33.2013 20.729 32.9375 20.9929C32.6736 21.2568 32.3426 21.3887 31.9445 21.3887H11.9583Z" fill="#E3E3E3"/>
</svg>
