<svg width="40" height="40" viewBox="0 0 40 40" fill="none" xmlns="http://www.w3.org/2000/svg">
<path d="M19.6667 34.4583C19.2778 34.4583 18.8819 34.3889 18.4792 34.25C18.0764 34.1111 17.7222 33.8889 17.4167 33.5833L14.5417 30.9583C11.5972 28.2639 8.9375 25.5903 6.5625 22.9375C4.1875 20.2847 3 17.3611 3 14.1667C3 11.5556 3.875 9.375 5.625 7.625C7.375 5.875 9.55556 5 12.1667 5C13.6389 5 15.0278 5.3125 16.3333 5.9375C17.6389 6.5625 18.75 7.41667 19.6667 8.5C20.5833 7.41667 21.6944 6.5625 23 5.9375C24.3056 5.3125 25.6944 5 27.1667 5C29.7778 5 31.9583 5.875 33.7083 7.625C35.4583 9.375 36.3333 11.5556 36.3333 14.1667C36.3333 17.3611 35.1528 20.2917 32.7917 22.9583C30.4306 25.625 27.75 28.3056 24.75 31L21.9167 33.5833C21.6111 33.8889 21.2569 34.1111 20.8542 34.25C20.4514 34.3889 20.0556 34.4583 19.6667 34.4583ZM18.0833 11.8333C17.2778 10.6944 16.4167 9.82639 15.5 9.22917C14.5833 8.63194 13.4722 8.33333 12.1667 8.33333C10.5 8.33333 9.11111 8.88889 8 10C6.88889 11.1111 6.33333 12.5 6.33333 14.1667C6.33333 15.6111 6.84722 17.1458 7.875 18.7708C8.90278 20.3958 10.1319 21.9722 11.5625 23.5C12.9931 25.0278 14.4653 26.4583 15.9792 27.7917C17.4931 29.125 18.7222 30.2222 19.6667 31.0833C20.6111 30.2222 21.8403 29.125 23.3542 27.7917C24.8681 26.4583 26.3403 25.0278 27.7708 23.5C29.2014 21.9722 30.4306 20.3958 31.4583 18.7708C32.4861 17.1458 33 15.6111 33 14.1667C33 12.5 32.4444 11.1111 31.3333 10C30.2222 8.88889 28.8333 8.33333 27.1667 8.33333C25.8611 8.33333 24.75 8.63194 23.8333 9.22917C22.9167 9.82639 22.0556 10.6944 21.25 11.8333C21.0556 12.1111 20.8194 12.3194 20.5417 12.4583C20.2639 12.5972 19.9722 12.6667 19.6667 12.6667C19.3611 12.6667 19.0694 12.5972 18.7917 12.4583C18.5139 12.3194 18.2778 12.1111 18.0833 11.8333Z" fill="#E3E3E3"/>
</svg>
