<svg width="40" height="40" viewBox="0 0 40 40" fill="none" xmlns="http://www.w3.org/2000/svg">
<path d="M12.5 36.6667C10.8888 36.6667 9.51385 36.0972 8.37496 34.9583C7.23607 33.8194 6.66663 32.4444 6.66663 30.8333V9.16667C6.66663 7.55555 7.23607 6.18055 8.37496 5.04167C9.51385 3.90278 10.8888 3.33333 12.5 3.33333H33.3333V28.3333C32.6388 28.3333 32.0486 28.5764 31.5625 29.0625C31.0763 29.5486 30.8333 30.1389 30.8333 30.8333C30.8333 31.5278 31.0763 32.1181 31.5625 32.6042C32.0486 33.0903 32.6388 33.3333 33.3333 33.3333V36.6667H12.5ZM9.99996 25.5417C10.3888 25.3472 10.7916 25.2083 11.2083 25.125C11.625 25.0417 12.0555 25 12.5 25H13.3333V6.66667H12.5C11.8055 6.66667 11.2152 6.90972 10.7291 7.39583C10.243 7.88194 9.99996 8.47222 9.99996 9.16667V25.5417ZM16.6666 25H30V6.66667H16.6666V25ZM12.5 33.3333H28.0416C27.875 32.9444 27.743 32.5486 27.6458 32.1458C27.5486 31.7431 27.5 31.3056 27.5 30.8333C27.5 30.3889 27.5416 29.9583 27.625 29.5417C27.7083 29.125 27.8472 28.7222 28.0416 28.3333H12.5C11.7777 28.3333 11.1805 28.5764 10.7083 29.0625C10.2361 29.5486 9.99996 30.1389 9.99996 30.8333C9.99996 31.5556 10.2361 32.1528 10.7083 32.625C11.1805 33.0972 11.7777 33.3333 12.5 33.3333Z" fill="#E3E3E3"/>
</svg>
