<svg width="40" height="40" viewBox="0 0 40 40" fill="none" xmlns="http://www.w3.org/2000/svg">
<path d="M20 35.5417C19.6111 35.5417 19.2222 35.4722 18.8333 35.3333C18.4444 35.1944 18.0972 34.9861 17.7916 34.7083C15.9861 33.0417 14.3888 31.4167 13 29.8333C11.6111 28.25 10.4513 26.7153 9.52079 25.2292C8.59024 23.7431 7.8819 22.3125 7.39579 20.9375C6.90968 19.5625 6.66663 18.25 6.66663 17C6.66663 14.1389 7.38885 11.5694 8.83329 9.29167C10.2777 7.01389 12.3194 5.34722 14.9583 4.29167C15.6805 3.98611 16.4791 3.75 17.3541 3.58333C18.2291 3.41667 19.0972 3.31944 19.9583 3.29167C20.4305 3.29167 20.8263 3.44444 21.1458 3.75C21.4652 4.05556 21.625 4.44444 21.625 4.91667C21.625 5.38889 21.4652 5.79861 21.1458 6.14583C20.8263 6.49306 20.4305 6.66667 19.9583 6.66667C19.2916 6.66667 18.6388 6.72917 18 6.85417C17.3611 6.97917 16.7222 7.16667 16.0833 7.41667C14.1388 8.22222 12.6388 9.5 11.5833 11.25C10.5277 13 9.99996 14.9167 9.99996 17C9.99996 18.9722 10.8194 21.2292 12.4583 23.7708C14.0972 26.3125 16.6111 29.1389 20 32.25C21.6944 30.6944 23.1666 29.2153 24.4166 27.8125C25.6666 26.4097 26.7083 25.0694 27.5416 23.7917C28.0972 22.9306 28.5833 22.0486 29 21.1458C29.4166 20.2431 29.7083 19.3056 29.875 18.3333C29.9861 17.6944 30.2291 17.25 30.6041 17C30.9791 16.75 31.375 16.6528 31.7916 16.7083C32.2083 16.7639 32.5625 16.9306 32.8541 17.2083C33.1458 17.4861 33.2638 17.8611 33.2083 18.3333C32.9861 20.0556 32.493 21.6736 31.7291 23.1875C30.9652 24.7014 30.0694 26.1528 29.0416 27.5417C27.8472 29.125 26.618 30.5347 25.3541 31.7708C24.0902 33.0069 23.0416 33.9861 22.2083 34.7083C21.9027 34.9861 21.5555 35.1944 21.1666 35.3333C20.7777 35.4722 20.3888 35.5417 20 35.5417ZM20 20C20.9166 20 21.7013 19.6736 22.3541 19.0208C23.0069 18.3681 23.3333 17.5833 23.3333 16.6667C23.3333 15.75 23.0069 14.9653 22.3541 14.3125C21.7013 13.6597 20.9166 13.3333 20 13.3333C19.0833 13.3333 18.2986 13.6597 17.6458 14.3125C16.993 14.9653 16.6666 15.75 16.6666 16.6667C16.6666 17.5833 16.993 18.3681 17.6458 19.0208C18.2986 19.6736 19.0833 20 20 20ZM30 8.33333V11.6667C30 12.1389 30.1597 12.5347 30.4791 12.8542C30.7986 13.1736 31.1944 13.3333 31.6666 13.3333C32.1388 13.3333 32.5347 13.1736 32.8541 12.8542C33.1736 12.5347 33.3333 12.1389 33.3333 11.6667V8.33333H36.6666C37.1388 8.33333 37.5347 8.17361 37.8541 7.85417C38.1736 7.53472 38.3333 7.13889 38.3333 6.66667C38.3333 6.19444 38.1736 5.79861 37.8541 5.47917C37.5347 5.15972 37.1388 5 36.6666 5H33.3333V1.66667C33.3333 1.19444 33.1736 0.798611 32.8541 0.479167C32.5347 0.159722 32.1388 0 31.6666 0C31.1944 0 30.7986 0.159722 30.4791 0.479167C30.1597 0.798611 30 1.19444 30 1.66667V5H26.6666C26.1944 5 25.7986 5.15972 25.4791 5.47917C25.1597 5.79861 25 6.19444 25 6.66667C25 7.13889 25.1597 7.53472 25.4791 7.85417C25.7986 8.17361 26.1944 8.33333 26.6666 8.33333H30Z" fill="#E3E3E3"/>
</svg>
