<svg width="40" height="40" viewBox="0 0 40 40" fill="none" xmlns="http://www.w3.org/2000/svg">
<path d="M18.7083 17.5417C19.2917 17.5417 19.7847 17.3403 20.1875 16.9375C20.5903 16.5347 20.7917 16.0417 20.7917 15.4583C20.7917 14.875 20.5903 14.3819 20.1875 13.9792C19.7847 13.5764 19.2917 13.375 18.7083 13.375C18.125 13.375 17.6319 13.5764 17.2292 13.9792C16.8264 14.3819 16.625 14.875 16.625 15.4583C16.625 16.0417 16.8264 16.5347 17.2292 16.9375C17.6319 17.3403 18.125 17.5417 18.7083 17.5417ZM34.25 36.6667C33.0833 36.6667 31.5139 36.1806 29.5417 35.2083C27.5694 34.2361 25.4583 32.9167 23.2083 31.25C22.6806 31.3889 22.1458 31.4931 21.6042 31.5625C21.0625 31.6319 20.5139 31.6667 19.9583 31.6667C16.7083 31.6667 13.9583 30.5417 11.7083 28.2917C9.45833 26.0417 8.33333 23.2917 8.33333 20.0417C8.33333 19.4861 8.375 18.9306 8.45833 18.375C8.54167 17.8194 8.65278 17.2778 8.79167 16.75C7.15278 14.5 5.84028 12.3958 4.85417 10.4375C3.86806 8.47917 3.375 6.91667 3.375 5.75C3.375 5 3.58333 4.40972 4 3.97917C4.41667 3.54861 4.98611 3.33333 5.70833 3.33333C6.34722 3.33333 7.13194 3.51389 8.0625 3.875C8.99306 4.23611 10.25 4.86111 11.8333 5.75C12.2222 5.97222 12.4792 6.3125 12.6042 6.77083C12.7292 7.22917 12.6806 7.65278 12.4583 8.04167C12.2361 8.43055 11.9028 8.6875 11.4583 8.8125C11.0139 8.9375 10.5972 8.88889 10.2083 8.66667C9.68056 8.36111 9.16667 8.09722 8.66667 7.875C8.16667 7.65278 7.63889 7.41667 7.08333 7.16667C7.58333 8.22222 8.11806 9.25 8.6875 10.25C9.25694 11.25 9.86111 12.2361 10.5 13.2083C11.5556 11.7083 12.9028 10.5278 14.5417 9.66667C16.1806 8.80555 17.9861 8.375 19.9583 8.375C23.2083 8.375 25.9653 9.50694 28.2292 11.7708C30.4931 14.0347 31.625 16.7917 31.625 20.0417C31.625 22.0139 31.1875 23.8194 30.3125 25.4583C29.4375 27.0972 28.25 28.4444 26.75 29.5C27.7222 30.1389 28.7153 30.75 29.7292 31.3333C30.7431 31.9167 31.7778 32.4444 32.8333 32.9167C32.6111 32.3889 32.3819 31.875 32.1458 31.375C31.9097 30.875 31.6389 30.3611 31.3333 29.8333C31.1111 29.4444 31.0625 29.0208 31.1875 28.5625C31.3125 28.1042 31.5694 27.7639 31.9583 27.5417C32.3472 27.3194 32.7708 27.2708 33.2292 27.3958C33.6875 27.5208 34.0278 27.7778 34.25 28.1667C35.1944 29.8333 35.8333 31.1042 36.1667 31.9792C36.5 32.8542 36.6667 33.6111 36.6667 34.25C36.6667 35.0556 36.4444 35.6597 36 36.0625C35.5556 36.4653 34.9722 36.6667 34.25 36.6667ZM22.875 25.0417C23.3472 25.0417 23.7431 24.8819 24.0625 24.5625C24.3819 24.2431 24.5417 23.8472 24.5417 23.375C24.5417 22.9028 24.3819 22.5069 24.0625 22.1875C23.7431 21.8681 23.3472 21.7083 22.875 21.7083C22.4028 21.7083 22.0069 21.8681 21.6875 22.1875C21.3681 22.5069 21.2083 22.9028 21.2083 23.375C21.2083 23.8472 21.3681 24.2431 21.6875 24.5625C22.0069 24.8819 22.4028 25.0417 22.875 25.0417ZM24.9583 19.2083C25.3194 19.2083 25.6181 19.0903 25.8542 18.8542C26.0903 18.6181 26.2083 18.3194 26.2083 17.9583C26.2083 17.5972 26.0903 17.2986 25.8542 17.0625C25.6181 16.8264 25.3194 16.7083 24.9583 16.7083C24.5972 16.7083 24.2986 16.8264 24.0625 17.0625C23.8264 17.2986 23.7083 17.5972 23.7083 17.9583C23.7083 18.3194 23.8264 18.6181 24.0625 18.8542C24.2986 19.0903 24.5972 19.2083 24.9583 19.2083ZM19.5 28.2917C18.0833 27.0694 16.7222 25.8056 15.4167 24.5C14.1111 23.1944 12.8611 21.8333 11.6667 20.4167C11.7222 21.4722 11.9583 22.4653 12.375 23.3958C12.7917 24.3264 13.3611 25.1528 14.0833 25.875C14.8056 26.5972 15.625 27.1667 16.5417 27.5833C17.4583 28 18.4444 28.2361 19.5 28.2917ZM23.7917 27.4167C25.125 26.7222 26.2083 25.7153 27.0417 24.3958C27.875 23.0764 28.2917 21.6111 28.2917 20C28.2917 17.6944 27.4792 15.7361 25.8542 14.125C24.2292 12.5139 22.2639 11.7083 19.9583 11.7083C18.3472 11.7083 16.8889 12.125 15.5833 12.9583C14.2778 13.7917 13.2778 14.875 12.5833 16.2083C14.1667 18.3194 15.9028 20.3194 17.7917 22.2083C19.6806 24.0972 21.6806 25.8333 23.7917 27.4167Z" fill="#E3E3E3"/>
</svg>
